<mxfile host="Electron" modified="2023-10-21T18:24:33.689Z" agent="Mozilla/5.0 (X11; Linux x86_64) AppleWebKit/537.36 (KHTML, like Gecko) draw.io/22.0.3 Chrome/114.0.5735.289 Electron/25.8.4 Safari/537.36" etag="8iZY6YSm9Gsem92IV0mk" version="22.0.3" type="device">
  <diagram name="Page-1" id="0_qen5kPaUgBqT1i1uQZ">
    <mxGraphModel dx="1434" dy="846" grid="1" gridSize="10" guides="1" tooltips="1" connect="1" arrows="1" fold="1" page="1" pageScale="1" pageWidth="850" pageHeight="1100" math="0" shadow="0">
      <root>
        <mxCell id="0" />
        <mxCell id="1" parent="0" />
        <mxCell id="x8Xf7ZDneE2V1mPHEaKP-1" value="" style="rounded=0;whiteSpace=wrap;html=1;fontSize=20;" parent="1" vertex="1">
          <mxGeometry width="1280" height="720" as="geometry" />
        </mxCell>
        <mxCell id="x8Xf7ZDneE2V1mPHEaKP-2" value="MENÜSÁV" style="rounded=1;whiteSpace=wrap;html=1;fontSize=20;" parent="1" vertex="1">
          <mxGeometry x="240" y="30" width="1000" height="60" as="geometry" />
        </mxCell>
        <mxCell id="x8Xf7ZDneE2V1mPHEaKP-3" value="LÁBJEGYZET" style="rounded=1;whiteSpace=wrap;html=1;fontSize=20;" parent="1" vertex="1">
          <mxGeometry x="40" y="620" width="1200" height="60" as="geometry" />
        </mxCell>
        <mxCell id="x8Xf7ZDneE2V1mPHEaKP-4" value="LOGÓ ÉS CÉGNÉV" style="rounded=1;whiteSpace=wrap;html=1;fontSize=20;" parent="1" vertex="1">
          <mxGeometry x="40" y="30" width="200" height="60" as="geometry" />
        </mxCell>
        <mxCell id="x8Xf7ZDneE2V1mPHEaKP-5" value="" style="rounded=0;whiteSpace=wrap;html=1;fontSize=20;" parent="1" vertex="1">
          <mxGeometry x="40" y="90" width="1200" height="530" as="geometry" />
        </mxCell>
        <mxCell id="x8Xf7ZDneE2V1mPHEaKP-25" value="TERMÉKEK LISTÁJA" style="rounded=0;whiteSpace=wrap;html=1;fontSize=20;" parent="1" vertex="1">
          <mxGeometry x="80" y="120" width="1120" height="190" as="geometry" />
        </mxCell>
        <mxCell id="x8Xf7ZDneE2V1mPHEaKP-26" value="TÖRÖL" style="rounded=1;whiteSpace=wrap;html=1;fontSize=20;" parent="1" vertex="1">
          <mxGeometry x="220" y="325" width="120" height="60" as="geometry" />
        </mxCell>
        <mxCell id="x8Xf7ZDneE2V1mPHEaKP-27" value="MÓDOSÍT" style="rounded=1;whiteSpace=wrap;html=1;fontSize=20;" parent="1" vertex="1">
          <mxGeometry x="80" y="325" width="120" height="60" as="geometry" />
        </mxCell>
        <mxCell id="x8Xf7ZDneE2V1mPHEaKP-29" value="ÚJ TERMÉK INFORMÁCIÓK MEGADÁSA" style="rounded=0;whiteSpace=wrap;html=1;fontSize=20;" parent="1" vertex="1">
          <mxGeometry x="80" y="400" width="1120" height="110" as="geometry" />
        </mxCell>
        <mxCell id="x8Xf7ZDneE2V1mPHEaKP-30" value="HOZZÁAD" style="rounded=1;whiteSpace=wrap;html=1;fontSize=20;" parent="1" vertex="1">
          <mxGeometry x="80" y="520" width="120" height="60" as="geometry" />
        </mxCell>
      </root>
    </mxGraphModel>
  </diagram>
</mxfile>
